<svg width="1263" height="363" viewBox="0 0 1263 363" fill="none" xmlns="http://www.w3.org/2000/svg">
<path d="M60.75 363H0V302.25H60.75V363ZM60.75 60.75H0V0H60.75V60.75ZM136.5 136.25H75.75V75.5H136.5V136.25ZM212.25 211.75H151.25V151H212.25V211.75ZM287.75 287.5H227V226.5H287.75V287.5ZM60.75 136.25H0V75.5H60.75V136.25ZM60.75 211.75H0V151H60.75V211.75ZM60.75 287.5H0V226.5H60.75V287.5ZM287.75 363H227V302.25H287.75V363ZM287.75 60.75H227V0H287.75V60.75ZM287.75 136.25H227V75.5H287.75V136.25ZM287.75 211.75H227V151H287.75V211.75ZM434.71 363H373.96V302.25H434.71V363ZM434.71 60.75H373.96V0H434.71V60.75ZM510.46 60.75H449.71V0H510.46V60.75ZM586.21 136.25H525.21V75.5H586.21V136.25ZM661.71 211.75H600.96V151H661.71V211.75ZM434.71 136.25H373.96V75.5H434.71V136.25ZM434.71 211.75H373.96V151H434.71V211.75ZM434.71 287.5H373.96V226.5H434.71V287.5ZM888.71 363H827.96V302.25H888.71V363ZM888.71 60.75H827.96V0H888.71V60.75ZM813.21 60.75H752.21V0H813.21V60.75ZM737.46 136.25H676.71V75.5H737.46V136.25ZM888.71 136.25H827.96V75.5H888.71V136.25ZM888.71 211.75H827.96V151H888.71V211.75ZM888.71 287.5H827.96V226.5H888.71V287.5ZM1111.42 211.75H1050.67V151H1111.42V211.75ZM1187.17 287.5H1126.17V226.5H1187.17V287.5ZM1187.17 136.25H1126.17V75.5H1187.17V136.25ZM1262.67 60.75H1201.92V0H1262.67V60.75ZM1035.67 211.75H974.92V151H1035.67V211.75ZM1262.67 363H1201.92V302.25H1262.67V363ZM1035.67 287.5H974.92V226.5H1035.67V287.5ZM1035.67 363H974.92V302.25H1035.67V363ZM1035.67 60.75H974.92V0H1035.67V60.75ZM1035.67 136.25H974.92V75.5H1035.67V136.25Z" fill="black"/>
</svg>
